<mxfile host="Electron" modified="2023-10-15T13:46:10.169Z" agent="Mozilla/5.0 (Macintosh; Intel Mac OS X 10_15_7) AppleWebKit/537.36 (KHTML, like Gecko) draw.io/22.0.2 Chrome/114.0.5735.289 Electron/25.8.4 Safari/537.36" etag="c3qFWb-5QSEKH9-07RYE" version="22.0.2" type="device">
  <diagram name="Page-1" id="n6lDj1kioED61fxHorZj">
    <mxGraphModel dx="1122" dy="696" grid="1" gridSize="10" guides="1" tooltips="1" connect="1" arrows="1" fold="1" page="1" pageScale="1" pageWidth="827" pageHeight="1169" math="0" shadow="0">
      <root>
        <mxCell id="0" />
        <mxCell id="1" parent="0" />
        <mxCell id="6ytGr7tCMyBoqUC2_lRp-40" value="" style="rounded=0;whiteSpace=wrap;html=1;" vertex="1" parent="1">
          <mxGeometry x="320" y="600" width="340" height="160" as="geometry" />
        </mxCell>
        <mxCell id="6ytGr7tCMyBoqUC2_lRp-32" value="" style="rounded=0;whiteSpace=wrap;html=1;" vertex="1" parent="1">
          <mxGeometry x="30" y="100" width="780" height="450" as="geometry" />
        </mxCell>
        <mxCell id="6ytGr7tCMyBoqUC2_lRp-1" value="&lt;h1&gt;&lt;font color=&quot;#000000&quot;&gt;Eco&lt;/font&gt;&lt;font color=&quot;#ff3333&quot;&gt; &lt;/font&gt;&lt;font color=&quot;#009900&quot;&gt;Rover&lt;/font&gt;&lt;/h1&gt;" style="text;html=1;strokeColor=none;fillColor=none;spacing=5;spacingTop=-20;whiteSpace=wrap;overflow=hidden;rounded=0;align=center;" vertex="1" parent="1">
          <mxGeometry x="319" y="10" width="190" height="50" as="geometry" />
        </mxCell>
        <mxCell id="6ytGr7tCMyBoqUC2_lRp-2" value="" style="ellipse;whiteSpace=wrap;html=1;aspect=fixed;" vertex="1" parent="1">
          <mxGeometry x="60" y="260" width="40" height="40" as="geometry" />
        </mxCell>
        <mxCell id="6ytGr7tCMyBoqUC2_lRp-4" value="&lt;b&gt;Sign In/ Sign Up Page&lt;/b&gt;" style="whiteSpace=wrap;html=1;aspect=fixed;" vertex="1" parent="1">
          <mxGeometry x="180" y="245" width="70" height="70" as="geometry" />
        </mxCell>
        <mxCell id="6ytGr7tCMyBoqUC2_lRp-5" value="" style="endArrow=classic;html=1;rounded=0;exitX=1;exitY=0.5;exitDx=0;exitDy=0;entryX=0;entryY=0.5;entryDx=0;entryDy=0;" edge="1" parent="1" source="6ytGr7tCMyBoqUC2_lRp-2" target="6ytGr7tCMyBoqUC2_lRp-4">
          <mxGeometry width="50" height="50" relative="1" as="geometry">
            <mxPoint x="390" y="330" as="sourcePoint" />
            <mxPoint x="150" y="290" as="targetPoint" />
          </mxGeometry>
        </mxCell>
        <mxCell id="6ytGr7tCMyBoqUC2_lRp-19" style="edgeStyle=orthogonalEdgeStyle;rounded=0;orthogonalLoop=1;jettySize=auto;html=1;entryX=0.5;entryY=0;entryDx=0;entryDy=0;" edge="1" parent="1" source="6ytGr7tCMyBoqUC2_lRp-6" target="6ytGr7tCMyBoqUC2_lRp-17">
          <mxGeometry relative="1" as="geometry" />
        </mxCell>
        <mxCell id="6ytGr7tCMyBoqUC2_lRp-20" value="&lt;b&gt;Yes&lt;/b&gt;" style="edgeLabel;html=1;align=center;verticalAlign=middle;resizable=0;points=[];" vertex="1" connectable="0" parent="6ytGr7tCMyBoqUC2_lRp-19">
          <mxGeometry x="-0.2" relative="1" as="geometry">
            <mxPoint as="offset" />
          </mxGeometry>
        </mxCell>
        <mxCell id="6ytGr7tCMyBoqUC2_lRp-6" value="Yes/ No" style="rhombus;whiteSpace=wrap;html=1;" vertex="1" parent="1">
          <mxGeometry x="290" y="240" width="80" height="80" as="geometry" />
        </mxCell>
        <mxCell id="6ytGr7tCMyBoqUC2_lRp-7" value="" style="endArrow=none;html=1;rounded=0;exitX=0.5;exitY=0;exitDx=0;exitDy=0;entryX=0.5;entryY=0;entryDx=0;entryDy=0;startArrow=classic;startFill=1;endFill=0;" edge="1" parent="1" source="6ytGr7tCMyBoqUC2_lRp-4" target="6ytGr7tCMyBoqUC2_lRp-6">
          <mxGeometry width="50" height="50" relative="1" as="geometry">
            <mxPoint x="390" y="330" as="sourcePoint" />
            <mxPoint x="440" y="280" as="targetPoint" />
            <Array as="points">
              <mxPoint x="215" y="180" />
              <mxPoint x="330" y="180" />
            </Array>
          </mxGeometry>
        </mxCell>
        <mxCell id="6ytGr7tCMyBoqUC2_lRp-8" value="&lt;b&gt;&lt;font style=&quot;font-size: 13px;&quot;&gt;New User/ &lt;font color=&quot;#ff3333&quot;&gt;No&lt;/font&gt;&lt;/font&gt;&lt;/b&gt;" style="edgeLabel;html=1;align=center;verticalAlign=middle;resizable=0;points=[];" vertex="1" connectable="0" parent="6ytGr7tCMyBoqUC2_lRp-7">
          <mxGeometry x="0.1491" y="4" relative="1" as="geometry">
            <mxPoint x="-15" as="offset" />
          </mxGeometry>
        </mxCell>
        <mxCell id="6ytGr7tCMyBoqUC2_lRp-10" value="" style="endArrow=classic;html=1;rounded=0;exitX=1;exitY=0.5;exitDx=0;exitDy=0;entryX=0;entryY=0.5;entryDx=0;entryDy=0;" edge="1" parent="1" source="6ytGr7tCMyBoqUC2_lRp-6">
          <mxGeometry width="50" height="50" relative="1" as="geometry">
            <mxPoint x="390" y="330" as="sourcePoint" />
            <mxPoint x="470" y="280" as="targetPoint" />
          </mxGeometry>
        </mxCell>
        <mxCell id="6ytGr7tCMyBoqUC2_lRp-11" value="&lt;b&gt;&lt;font style=&quot;font-size: 12px;&quot;&gt;Yes&lt;/font&gt;&lt;/b&gt;" style="edgeLabel;html=1;align=center;verticalAlign=middle;resizable=0;points=[];" vertex="1" connectable="0" parent="6ytGr7tCMyBoqUC2_lRp-10">
          <mxGeometry x="0.1" y="4" relative="1" as="geometry">
            <mxPoint y="1" as="offset" />
          </mxGeometry>
        </mxCell>
        <mxCell id="6ytGr7tCMyBoqUC2_lRp-26" style="edgeStyle=orthogonalEdgeStyle;rounded=0;orthogonalLoop=1;jettySize=auto;html=1;entryX=0;entryY=0.25;entryDx=0;entryDy=0;" edge="1" parent="1" source="6ytGr7tCMyBoqUC2_lRp-12" target="6ytGr7tCMyBoqUC2_lRp-4">
          <mxGeometry relative="1" as="geometry">
            <Array as="points">
              <mxPoint x="550" y="150" />
              <mxPoint x="160" y="150" />
              <mxPoint x="160" y="262" />
            </Array>
          </mxGeometry>
        </mxCell>
        <mxCell id="6ytGr7tCMyBoqUC2_lRp-27" value="&lt;b&gt;&lt;font style=&quot;font-size: 12px;&quot;&gt;Log Out&lt;/font&gt;&lt;/b&gt;" style="edgeLabel;html=1;align=center;verticalAlign=middle;resizable=0;points=[];" vertex="1" connectable="0" parent="6ytGr7tCMyBoqUC2_lRp-26">
          <mxGeometry x="-0.0228" y="4" relative="1" as="geometry">
            <mxPoint x="-1" y="-14" as="offset" />
          </mxGeometry>
        </mxCell>
        <mxCell id="6ytGr7tCMyBoqUC2_lRp-12" value="&lt;b&gt;Home Page&lt;/b&gt;" style="swimlane;fontStyle=0;childLayout=stackLayout;horizontal=1;startSize=30;horizontalStack=0;resizeParent=1;resizeParentMax=0;resizeLast=0;collapsible=1;marginBottom=0;whiteSpace=wrap;html=1;" vertex="1" parent="1">
          <mxGeometry x="470" y="220" width="160" height="120" as="geometry" />
        </mxCell>
        <mxCell id="6ytGr7tCMyBoqUC2_lRp-13" value="My Submissions" style="text;strokeColor=none;fillColor=none;align=left;verticalAlign=middle;spacingLeft=4;spacingRight=4;overflow=hidden;points=[[0,0.5],[1,0.5]];portConstraint=eastwest;rotatable=0;whiteSpace=wrap;html=1;" vertex="1" parent="6ytGr7tCMyBoqUC2_lRp-12">
          <mxGeometry y="30" width="160" height="30" as="geometry" />
        </mxCell>
        <mxCell id="6ytGr7tCMyBoqUC2_lRp-14" value="Submit New (Paper, Plastic, Aluminium, Electronics)&lt;br&gt;" style="text;strokeColor=none;fillColor=none;align=left;verticalAlign=middle;spacingLeft=4;spacingRight=4;overflow=hidden;points=[[0,0.5],[1,0.5]];portConstraint=eastwest;rotatable=0;whiteSpace=wrap;html=1;" vertex="1" parent="6ytGr7tCMyBoqUC2_lRp-12">
          <mxGeometry y="60" width="160" height="30" as="geometry" />
        </mxCell>
        <mxCell id="6ytGr7tCMyBoqUC2_lRp-28" value="My Rewards" style="text;strokeColor=none;fillColor=none;align=left;verticalAlign=middle;spacingLeft=4;spacingRight=4;overflow=hidden;points=[[0,0.5],[1,0.5]];portConstraint=eastwest;rotatable=0;whiteSpace=wrap;html=1;" vertex="1" parent="6ytGr7tCMyBoqUC2_lRp-12">
          <mxGeometry y="90" width="160" height="30" as="geometry" />
        </mxCell>
        <mxCell id="6ytGr7tCMyBoqUC2_lRp-21" style="edgeStyle=orthogonalEdgeStyle;rounded=0;orthogonalLoop=1;jettySize=auto;html=1;" edge="1" parent="1" source="6ytGr7tCMyBoqUC2_lRp-17" target="6ytGr7tCMyBoqUC2_lRp-12">
          <mxGeometry relative="1" as="geometry" />
        </mxCell>
        <mxCell id="6ytGr7tCMyBoqUC2_lRp-17" value="Location &lt;br&gt;Acquisition" style="shape=parallelogram;perimeter=parallelogramPerimeter;whiteSpace=wrap;html=1;fixedSize=1;" vertex="1" parent="1">
          <mxGeometry x="270" y="400" width="120" height="60" as="geometry" />
        </mxCell>
        <mxCell id="6ytGr7tCMyBoqUC2_lRp-23" style="edgeStyle=orthogonalEdgeStyle;rounded=0;orthogonalLoop=1;jettySize=auto;html=1;entryX=1;entryY=0.5;entryDx=0;entryDy=0;startArrow=classic;startFill=1;" edge="1" parent="1" source="6ytGr7tCMyBoqUC2_lRp-22" target="6ytGr7tCMyBoqUC2_lRp-13">
          <mxGeometry relative="1" as="geometry" />
        </mxCell>
        <mxCell id="6ytGr7tCMyBoqUC2_lRp-22" value="My Submissions" style="whiteSpace=wrap;html=1;aspect=fixed;" vertex="1" parent="1">
          <mxGeometry x="680" y="150" width="80" height="80" as="geometry" />
        </mxCell>
        <mxCell id="6ytGr7tCMyBoqUC2_lRp-25" style="edgeStyle=orthogonalEdgeStyle;rounded=0;orthogonalLoop=1;jettySize=auto;html=1;entryX=1;entryY=0.5;entryDx=0;entryDy=0;startArrow=classic;startFill=1;" edge="1" parent="1" source="6ytGr7tCMyBoqUC2_lRp-24" target="6ytGr7tCMyBoqUC2_lRp-14">
          <mxGeometry relative="1" as="geometry" />
        </mxCell>
        <mxCell id="6ytGr7tCMyBoqUC2_lRp-24" value="Submit New" style="whiteSpace=wrap;html=1;aspect=fixed;" vertex="1" parent="1">
          <mxGeometry x="680" y="315" width="80" height="80" as="geometry" />
        </mxCell>
        <mxCell id="6ytGr7tCMyBoqUC2_lRp-31" style="edgeStyle=orthogonalEdgeStyle;rounded=0;orthogonalLoop=1;jettySize=auto;html=1;entryX=1;entryY=0.5;entryDx=0;entryDy=0;startArrow=classic;startFill=1;" edge="1" parent="1" source="6ytGr7tCMyBoqUC2_lRp-30" target="6ytGr7tCMyBoqUC2_lRp-28">
          <mxGeometry relative="1" as="geometry">
            <Array as="points">
              <mxPoint x="660" y="490" />
              <mxPoint x="660" y="325" />
            </Array>
          </mxGeometry>
        </mxCell>
        <mxCell id="6ytGr7tCMyBoqUC2_lRp-30" value="My Rewards" style="whiteSpace=wrap;html=1;aspect=fixed;" vertex="1" parent="1">
          <mxGeometry x="680" y="450" width="80" height="80" as="geometry" />
        </mxCell>
        <mxCell id="6ytGr7tCMyBoqUC2_lRp-33" value="&lt;b&gt;&lt;font style=&quot;font-size: 16px;&quot;&gt;Flutter&lt;/font&gt;&lt;/b&gt;" style="text;html=1;strokeColor=none;fillColor=none;align=center;verticalAlign=middle;whiteSpace=wrap;rounded=0;" vertex="1" parent="1">
          <mxGeometry x="400" y="70" width="60" height="30" as="geometry" />
        </mxCell>
        <mxCell id="6ytGr7tCMyBoqUC2_lRp-35" value="Firestore" style="shape=datastore;whiteSpace=wrap;html=1;" vertex="1" parent="1">
          <mxGeometry x="384" y="650" width="60" height="60" as="geometry" />
        </mxCell>
        <mxCell id="6ytGr7tCMyBoqUC2_lRp-39" style="edgeStyle=orthogonalEdgeStyle;rounded=0;orthogonalLoop=1;jettySize=auto;html=1;entryX=1;entryY=0.5;entryDx=0;entryDy=0;startArrow=classic;startFill=1;" edge="1" parent="1" source="6ytGr7tCMyBoqUC2_lRp-37" target="6ytGr7tCMyBoqUC2_lRp-35">
          <mxGeometry relative="1" as="geometry" />
        </mxCell>
        <mxCell id="6ytGr7tCMyBoqUC2_lRp-37" value="Firebase &lt;br&gt;Storage" style="shape=dataStorage;whiteSpace=wrap;html=1;fixedSize=1;" vertex="1" parent="1">
          <mxGeometry x="530" y="640" width="100" height="80" as="geometry" />
        </mxCell>
        <mxCell id="6ytGr7tCMyBoqUC2_lRp-38" style="edgeStyle=orthogonalEdgeStyle;rounded=0;orthogonalLoop=1;jettySize=auto;html=1;entryX=0.491;entryY=1.009;entryDx=0;entryDy=0;entryPerimeter=0;" edge="1" parent="1" source="6ytGr7tCMyBoqUC2_lRp-35" target="6ytGr7tCMyBoqUC2_lRp-32">
          <mxGeometry relative="1" as="geometry" />
        </mxCell>
        <mxCell id="6ytGr7tCMyBoqUC2_lRp-41" value="&lt;b&gt;&lt;font style=&quot;font-size: 16px;&quot;&gt;Firebase&lt;/font&gt;&lt;/b&gt;" style="text;html=1;strokeColor=none;fillColor=none;align=center;verticalAlign=middle;whiteSpace=wrap;rounded=0;" vertex="1" parent="1">
          <mxGeometry x="460" y="570" width="60" height="30" as="geometry" />
        </mxCell>
      </root>
    </mxGraphModel>
  </diagram>
</mxfile>
